<svg width="21" height="20" viewBox="0 0 21 20" fill="none" xmlns="http://www.w3.org/2000/svg">
<path d="M0.75 0C0.335786 0 0 0.335786 0 0.75C0 1.16421 0.335786 1.5 0.75 1.5H2.13568C2.30558 1.5 2.45425 1.61422 2.49803 1.77838L5.05576 11.3699C3.44178 11.7885 2.25 13.2551 2.25 15C2.25 15.4142 2.58579 15.75 3 15.75H18.75C19.1642 15.75 19.5 15.4142 19.5 15C19.5 14.5858 19.1642 14.25 18.75 14.25H3.87803C4.18691 13.3761 5.02034 12.75 6 12.75H17.2183C17.5051 12.75 17.7668 12.5864 17.8925 12.3285C19.0277 9.99902 20.0183 7.58603 20.8527 5.10126C20.9191 4.90357 20.9002 4.68716 20.8005 4.50399C20.7008 4.32082 20.5294 4.18743 20.3273 4.13583C15.5055 2.90442 10.4536 2.25 5.25 2.25C4.89217 2.25 4.53505 2.2531 4.17868 2.25926L3.94738 1.39188C3.7285 0.571088 2.98515 0 2.13568 0H0.75Z" fill="#10151F"/>
<path d="M2.25 18C2.25 17.1716 2.92157 16.5 3.75 16.5C4.57843 16.5 5.25 17.1716 5.25 18C5.25 18.8284 4.57843 19.5 3.75 19.5C2.92157 19.5 2.25 18.8284 2.25 18Z" fill="#10151F"/>
<path d="M15 18C15 17.1716 15.6716 16.5 16.5 16.5C17.3284 16.5 18 17.1716 18 18C18 18.8284 17.3284 19.5 16.5 19.5C15.6716 19.5 15 18.8284 15 18Z" fill="#10151F"/>
</svg>
